<svg width="305" height="59" viewBox="0 0 305 59" fill="none" xmlns="http://www.w3.org/2000/svg">
    <path fill-rule="evenodd" clip-rule="evenodd" d="M3.18176 2.33832C1.83427 4.73707 0 10.9168 0 13.0555C0 14.2015 0.0652701 14.1935 1.4518 12.8894C3.60449 10.8655 8.06054 9.76842 14.127 9.76842H19.52V17.712V25.6555L16.2394 27.2661L12.9582 28.8761L16.0869 30.4647L19.215 32.0526L19.52 39.0737C19.7061 43.359 20.1538 46.6894 20.668 47.6211C22.2418 50.4698 25.4535 54.0243 28.2863 56.0536L31.11 58.0757V33.8696V9.66341L37.9725 9.90213C41.7472 10.0328 45.2785 10.3466 45.8201 10.5987C46.6314 10.976 47.0889 10.1457 48.4126 5.89707C49.2965 3.05874 50.02 0.571453 50.02 0.368758C50.02 0.166063 39.7769 0 27.2572 0H4.49448L3.18176 2.33832ZM61.8247 7.85503C60.9774 8.92284 59.4274 9.7843 57.4346 10.2959C51.3065 11.8674 45.2754 17.7602 42.4963 24.8912C41.1872 28.2497 41.2159 29.8181 42.6561 33.6113C45.1827 40.2667 51.0893 45.9214 57.34 47.6687C58.8498 48.0912 60.8603 49.1455 61.8076 50.0131L63.5303 51.5895L64.7558 49.9105C65.4304 48.9868 66.3601 48.2316 66.8231 48.2316C69.0496 48.2316 74.678 45.439 77.4151 42.9756C81.1837 39.5841 84.79 32.784 84.7894 29.0708C84.7894 27.5647 84.0781 25.0548 83.0155 22.8062C79.9356 16.2895 75.149 12.053 68.93 10.3387C67.4203 9.92227 65.4988 8.8215 64.66 7.89289L63.135 6.20417L61.8247 7.85503ZM270.933 25.0175C267.504 35.3745 264.031 44.834 263.213 46.0398L261.727 48.2316H266.893H272.06V46.1961C272.06 44.461 279.451 19.7139 280.468 18.0429C280.768 17.5508 287.92 37.8703 287.92 39.2129C287.92 40.3185 283.512 39.5462 280.365 37.8899L276.957 36.0949L278.44 39.0236C280.538 43.1691 282.665 45.4989 285.687 46.9629C287.936 48.0527 289.451 48.2316 296.419 48.2316H304.532L302.261 45.7156C299.866 43.0623 296.131 35.8129 295.493 32.5783C295.14 30.7895 295.266 30.6124 297.395 29.9091L299.675 29.1557L296.356 27.3736L293.038 25.5908L290.351 17.3744L287.666 9.1579H284.179C281.377 9.1579 280.348 8.86667 278.93 7.67249L277.166 6.18707L270.933 25.0175ZM88.2084 11.962C88.9508 13.7417 89.0893 16.7333 88.9392 27.7881C88.7574 41.2569 88.7373 41.4389 87.2764 42.9945L85.7971 44.5684L87.2764 44.5849C88.0895 44.5941 90.6076 45.3926 92.8725 46.3597L96.99 48.1174V31.9959C96.99 13.7765 96.6673 14.7772 101.866 16.8591C104.683 17.9873 106.903 20.7261 106.903 23.0742C106.903 24.962 103.826 27.8254 101.172 28.409L99.4471 28.7882L101.355 30.3951C103.872 32.5142 105.5 36.2372 105.517 39.9089C105.528 42.3009 105.872 43.2711 107.285 44.8816C108.755 46.5569 110.283 49.808 111.385 53.6048C111.949 55.5481 122.129 58.3138 127.163 57.8907L129.496 57.6947L126.435 55.716C120.413 51.8258 116.329 45.6314 114.69 37.9021C114.05 34.8824 113.53 33.9221 111.833 32.6265L109.759 31.0428L111.747 29.7015C114.088 28.1227 116.51 24.7385 116.51 23.0455C116.51 21.5021 113.752 15.9885 112.042 14.1141C111.312 13.3137 109.343 12.0115 107.665 11.2196C104.91 9.91983 103.777 9.78002 95.9536 9.77453L87.2922 9.76842L88.2084 11.962ZM120.759 10.9492C121.769 12.8381 121.089 34.6987 119.913 38.1585C119.342 39.8375 122.553 44.5751 125.654 46.6283C126.985 47.5099 128.217 48.2316 128.392 48.2316C128.567 48.2316 128.744 45.4158 128.785 41.9737C128.826 38.5315 129.031 32.8408 129.243 29.3266L129.625 22.9375L134.759 33.9056C137.584 39.9382 139.947 44.9494 140.011 45.0422C140.076 45.135 142.432 40.2911 145.247 34.278C148.169 28.0354 150.557 23.6408 150.813 24.0358C151.06 24.4156 151.265 30.0147 151.271 36.479C151.276 42.9432 151.513 48.2316 151.799 48.2316C153.07 48.2316 157.597 44.2693 159.18 41.7704C160.756 39.2819 160.845 38.8661 160.121 37.3691C159.194 35.4545 158.592 13.3931 159.406 11.1421C159.894 9.78979 159.825 9.76842 154.977 9.76842H150.051L145.023 20.1474L139.995 30.5269L135.115 20.1559L130.235 9.78491L125.181 9.77636C120.373 9.76903 120.158 9.82581 120.759 10.9492ZM177.51 10.3393C169.631 12.7466 162.575 21.5632 162.575 29C162.575 34.9716 167.716 42.8101 173.541 45.7217C178.335 48.1186 183.163 48.6235 188.73 47.3109C192.5 46.4226 193.741 46.3383 194.655 46.9092C195.755 47.5972 195.81 47.3793 195.81 42.3009C195.81 37.3178 195.748 37.0583 194.867 38.3179C194.348 39.059 192.636 40.4211 191.063 41.3436C184.119 45.4164 174.598 41.7222 173.428 34.5008L173.08 32.3579H176.535C178.435 32.3579 180.872 32.7126 181.952 33.1467C183.815 33.8952 184.102 33.8097 187.575 31.4671L191.235 28.9982L187.527 26.5316C184.087 24.2428 183.691 24.1195 182.037 24.8258C179.843 25.763 173.85 25.8912 173.85 25.0011C173.85 23.6835 175.686 20.8788 177.717 19.0936C182.095 15.2473 188.736 15.2088 193.523 19.002L195.81 20.8153V15.3975V9.97966L192.756 10.6061C190.555 11.0572 188.714 11.0279 186.162 10.5004C182.228 9.68722 179.793 9.64204 177.51 10.3393ZM201.072 10.81C201.761 12.2258 201.771 45.7559 201.082 47.1632C200.605 48.1388 201.018 48.2316 205.831 48.2316C210.854 48.2316 211.073 48.176 210.471 47.0508C210.104 46.364 209.84 41.3442 209.84 35.0613V24.2538L215.958 32.9336C219.323 37.7079 222.67 42.4182 223.396 43.4005C224.77 45.2608 230.011 48.2316 231.92 48.2316C232.955 48.2316 233.02 47.1699 233.02 30.1808C233.02 18.9056 233.257 11.6867 233.651 10.9492C234.25 9.8307 234.042 9.76842 229.7 9.76842H225.116L224.951 21.3263L224.785 32.8848L217.408 21.4789L210.032 10.0737L205.285 9.89419C200.898 9.72813 200.579 9.79712 201.072 10.81ZM239.543 10.8594C238.11 12.4437 236.68 16.1588 236.68 18.2963C236.68 19.3146 236.787 20.1474 236.919 20.1474C237.05 20.1474 238.353 19.604 239.816 18.9397C241.278 18.2755 243.779 17.726 245.373 17.7187L248.27 17.7053V32.9843V48.2627L249.985 47.3756C252.164 46.2474 255.423 42.9511 256.617 40.6678C257.331 39.3026 257.388 38.5724 256.869 37.4338C256.478 36.5754 256.2 32.1473 256.2 26.7881V17.6125L260.928 17.8823C263.527 18.0307 266.155 18.2572 266.766 18.3866C267.67 18.5771 268.143 17.7932 269.294 14.1947L270.709 9.76842H255.619C241.905 9.76842 240.439 9.86794 239.543 10.8594ZM68.1297 16.4506C71.1962 17.8439 74.2889 21.8599 74.8104 25.125C75.0148 26.404 75.5668 27.7698 76.0365 28.1605C76.7557 28.7576 76.7606 29.025 76.0658 29.8505C75.6119 30.3902 74.8921 32.0679 74.4657 33.579C73.4159 37.3026 71.1046 40.1964 68.0858 41.5689C61.1208 44.7345 53.6483 40.7801 51.9226 33.016C51.5926 31.5306 50.8691 30.0617 50.3152 29.7516C49.3954 29.2363 49.4112 29.0733 50.497 27.8724C51.1509 27.1495 51.8659 25.603 52.0855 24.4363C53.4244 17.3176 61.3532 13.3717 68.1297 16.4506ZM61.5984 22.9906C60.8493 24.9528 60.2363 27.6568 60.2363 29C60.2363 31.9012 62.7239 38.8136 63.4912 38.0456C64.2842 37.2519 66.49 30.5446 66.49 28.9274C66.49 27.4468 64.2342 20.8196 63.4296 19.938C63.1716 19.6547 62.3475 21.0284 61.5984 22.9906Z" fill="#2196F3"/>
</svg>
