<svg width="50" height="35" viewBox="0 0 50 35" fill="none" xmlns="http://www.w3.org/2000/svg">
<path d="M0 0H50V35H0V0Z" fill="#009B3A"/>
<path d="M4.25 17.5L25 30.75L45.75 17.5L25 4.25L4.25 17.5Z" fill="#FEDF00"/>
<path d="M25 26.25C29.8325 26.25 33.75 22.3325 33.75 17.5C33.75 12.6675 29.8325 8.75 25 8.75C20.1675 8.75 16.25 12.6675 16.25 17.5C16.25 22.3325 20.1675 26.25 25 26.25Z" fill="#002776"/>
<mask id="mask0_310_3" style="mask-type:alpha" maskUnits="userSpaceOnUse" x="16" y="8" width="18" height="19">
<path d="M25 26.25C29.8325 26.25 33.75 22.3325 33.75 17.5C33.75 12.6675 29.8325 8.75 25 8.75C20.1675 8.75 16.25 12.6675 16.25 17.5C16.25 22.3325 20.1675 26.25 25 26.25Z" fill="white"/>
</mask>
<g mask="url(#mask0_310_3)">
<path d="M-1.25 35C-1.25 23.264 8.264 13.75 20 13.75C31.736 13.75 41.25 23.264 41.25 35H40C40 23.9543 31.0457 15 20 15C8.95433 15 3.72529e-08 23.9543 3.72529e-08 35H-1.25Z" fill="white"/>
</g>
<path d="M20.3306 14.7908L21.0801 14.817L21.0856 14.6623L20.4787 14.6412L20.4862 14.427L20.9621 14.4437L20.9671 14.3008L20.4911 14.2842L20.4969 14.1177L21.0679 14.1377L21.0734 13.983L20.3596 13.958L20.3306 14.7908ZM21.3877 14.8358L21.5301 14.8483L21.5799 14.2792L21.6961 14.863L21.8266 14.8743L22.0424 14.3197L21.9926 14.8888L22.1349 14.9013L22.2076 14.0712L22.0001 14.053L21.7842 14.6077L21.6681 14.0238L21.4606 14.0057L21.3877 14.8358ZM23.1142 15.0307L23.7302 15.1365L23.7544 14.9957L23.2792 14.914L23.3116 14.7263L23.6987 14.7928L23.7229 14.652L23.3357 14.5855L23.3579 14.4565L23.8184 14.5357L23.8426 14.3948L23.2412 14.2915L23.1142 15.0307ZM28.5237 16.3428L28.2344 16.217L28.3009 16.0642L28.5902 16.19L28.5237 16.3428Z" fill="#009B3A"/>
<path d="M28.399 16.6159L28.2462 16.5494L28.4124 16.1672L28.5652 16.2339L28.399 16.6159ZM30.8405 17.6351C30.7957 17.7054 30.8412 17.7837 30.9415 17.8476C31.0419 17.9116 31.1104 17.9092 31.1392 17.8641C31.2304 17.7209 30.7034 17.5124 30.8657 17.2629C31.0057 17.0486 31.2454 17.2154 31.3357 17.2729C31.426 17.3304 31.5712 17.4794 31.4584 17.6509L31.3052 17.5532C31.3532 17.4779 31.3005 17.4056 31.2202 17.3544C31.1424 17.3049 31.0792 17.2822 31.0327 17.3549C30.955 17.4712 31.4715 17.6909 31.3132 17.9394C31.1965 18.1226 30.9934 18.0426 30.8579 17.9562C30.7424 17.8827 30.5699 17.7092 30.6824 17.5339L30.8405 17.6351V17.6351ZM29.6247 17.2271L30.2774 17.5964L30.3535 17.4617L29.825 17.1627L29.9305 16.9762L30.345 17.2107L30.4154 17.0864L30.0009 16.8519L30.083 16.7069L30.5804 16.9882L30.6565 16.8536L30.0349 16.5019L29.6247 17.2271ZM31.7345 18.2262C31.6862 18.2941 31.7274 18.3747 31.8244 18.4437C31.9212 18.5129 31.9897 18.5141 32.0209 18.4706C32.1194 18.3324 31.604 18.0966 31.7794 17.8559C31.9304 17.6492 32.161 17.8282 32.2482 17.8906C32.3354 17.9529 32.4725 18.1091 32.3509 18.2746L32.203 18.1692C32.2549 18.0966 32.206 18.0216 32.1285 17.9662C32.0534 17.9127 31.9915 17.8867 31.9414 17.9571C31.8577 18.0692 32.362 18.3156 32.1909 18.5554C32.0647 18.7322 31.866 18.6417 31.7352 18.5484C31.6237 18.4689 31.4605 18.2867 31.5819 18.1176L31.7345 18.2262ZM17.8587 14.4832C17.8307 14.2549 17.6412 14.0901 17.4357 14.1154C17.2302 14.1406 17.0862 14.3462 17.1142 14.5747C17.1422 14.8031 17.3317 14.9677 17.5372 14.9426C17.7427 14.9172 17.8867 14.7117 17.8587 14.4832ZM17.4865 14.2754C17.7697 14.2754 17.7697 14.7832 17.4865 14.7832C17.2032 14.7832 17.2032 14.2754 17.4865 14.2754ZM33.2129 19.0519C33.3187 18.8476 33.2555 18.6046 33.0715 18.5094C32.8877 18.4141 32.6527 18.5026 32.5469 18.7069C32.441 18.9112 32.5044 19.1541 32.6882 19.2494C32.8722 19.3446 33.107 19.2561 33.2129 19.0519ZM33.0232 18.6701C33.257 18.8301 32.97 19.2492 32.7364 19.0891C32.5027 18.9291 32.7895 18.5101 33.0232 18.6701ZM19.9515 14.1167C19.8597 13.9689 19.6745 13.9619 19.6745 13.9619L19.2579 13.9684L19.2724 14.8016C19.2724 14.8016 19.6029 14.8017 19.6907 14.7934C19.7785 14.7851 19.8817 14.7344 19.9492 14.6459C20.0165 14.5572 20.0159 14.4524 20.0154 14.3879C20.0147 14.3234 20.025 14.2352 19.9515 14.1167V14.1167ZM19.6115 14.6432C19.5475 14.6432 19.4244 14.6441 19.4244 14.6441L19.4152 14.1204C19.5875 14.1181 19.5935 14.1181 19.6604 14.1181C19.784 14.1202 19.8362 14.2124 19.8622 14.2721C19.8715 14.3386 19.872 14.3654 19.8742 14.4229C19.8665 14.4847 19.8482 14.5357 19.796 14.5846C19.7102 14.6422 19.6669 14.6432 19.6115 14.6432V14.6432ZM18.8134 14.4776C18.8134 14.4776 18.9005 14.4039 18.9229 14.2984C18.9454 14.1929 18.88 14.1067 18.8524 14.0821C18.8247 14.0574 18.7665 13.9989 18.6805 14.0022C18.5945 14.0056 18.17 14.0352 18.17 14.0352L18.2164 14.8674L18.3707 14.8566L18.3492 14.5477L18.6172 14.5289L18.6817 14.5244C18.6817 14.5244 18.7647 14.6602 18.7725 14.7441C18.7779 14.7934 18.7772 14.8352 18.7772 14.8352H18.9277C18.9277 14.8352 18.9315 14.6871 18.8887 14.5982C18.8459 14.5094 18.8134 14.4776 18.8134 14.4776V14.4776ZM18.7195 14.3481C18.687 14.3752 18.5959 14.3762 18.5959 14.3762L18.3382 14.3932L18.3232 14.1794C18.3624 14.1797 18.5672 14.1624 18.5709 14.1624C18.6122 14.1611 18.6587 14.1569 18.6587 14.1569C18.6587 14.1569 18.6924 14.1581 18.726 14.1872C18.7368 14.1958 18.7455 14.2067 18.7513 14.2191C18.7572 14.2315 18.76 14.2452 18.7597 14.2589C18.7587 14.3014 18.7345 14.3399 18.7195 14.3481V14.3481ZM27.615 15.7449C27.6465 15.5169 27.5057 15.3091 27.3007 15.2809C27.0955 15.2526 26.9037 15.4144 26.8722 15.6422C26.8407 15.8702 26.9815 16.0779 27.1865 16.1062C27.3915 16.1346 27.5835 15.9727 27.615 15.7449ZM27.3085 15.4484C27.5824 15.5211 27.452 16.0119 27.1782 15.9392C26.9045 15.8666 27.0349 15.3757 27.3085 15.4484ZM26.4177 15.4216C26.4177 15.4216 26.524 15.3802 26.5797 15.2881C26.6354 15.1957 26.6019 15.0929 26.5837 15.0606C26.5657 15.0281 26.5299 14.9539 26.4475 14.9289C26.2834 14.8825 26.1191 14.8373 25.9544 14.7931L25.7259 15.5946L25.8754 15.6349L25.9559 15.3361L26.2154 15.4061L26.2777 15.4229C26.2777 15.4229 26.3117 15.5784 26.2919 15.6601C26.285 15.6898 26.2764 15.7191 26.2664 15.7479L26.4084 15.7971C26.4084 15.7971 26.4605 15.6582 26.449 15.5604C26.4375 15.4624 26.4177 15.4216 26.4177 15.4216ZM26.3714 15.2686C26.3317 15.2836 26.2452 15.2547 26.2452 15.2547L25.996 15.1866L26.0519 14.9797C26.0887 14.9927 26.2879 15.0436 26.2915 15.0446C26.3309 15.0569 26.3764 15.0682 26.3764 15.0682C26.3764 15.0682 26.4079 15.0802 26.43 15.1189C26.4375 15.1305 26.4421 15.1436 26.4435 15.1573C26.445 15.1709 26.4432 15.1847 26.4384 15.1976C26.4235 15.2372 26.388 15.2657 26.3714 15.2686V15.2686ZM29.4444 16.6479C29.4444 16.6479 29.5539 16.6159 29.6172 16.5286C29.6805 16.4412 29.6559 16.3359 29.6405 16.3022C29.6252 16.2684 29.5959 16.1914 29.516 16.1594C29.436 16.1276 29.036 15.9824 29.036 15.9824L28.7405 16.7617L28.8859 16.8146L28.9915 16.5236L29.244 16.6152L29.3049 16.6372C29.3049 16.6372 29.3255 16.7949 29.2989 16.8747C29.2837 16.9221 29.266 16.9601 29.266 16.9601L29.4034 17.0211C29.4034 17.0211 29.467 16.8872 29.464 16.7887C29.4607 16.6904 29.4444 16.6479 29.4444 16.6479ZM29.4112 16.4916C29.3704 16.5031 29.2867 16.4671 29.2867 16.4671L29.0444 16.3781L29.1174 16.1766C29.1529 16.1927 29.3472 16.2601 29.3507 16.2616C29.389 16.2771 29.4332 16.2922 29.4332 16.2922C29.4332 16.2922 29.4634 16.3069 29.4824 16.3472C29.4888 16.3594 29.4923 16.3729 29.4925 16.3866C29.4928 16.4004 29.4899 16.414 29.484 16.4264C29.4659 16.4647 29.4282 16.4901 29.4112 16.4916V16.4916ZM25.3924 15.1434C25.3924 15.1434 25.4977 15.0996 25.5512 15.0059C25.6047 14.9122 25.5687 14.8102 25.5499 14.7782C25.5309 14.7462 25.4934 14.6729 25.4105 14.6499C25.3275 14.6269 24.9142 14.5261 24.9142 14.5261L24.705 15.3327L24.8554 15.3694L24.9287 15.0687L25.1897 15.1324L25.2525 15.1477L25.3924 15.1434V15.1434ZM25.3425 14.9916C25.3034 15.0076 25.2162 14.9807 25.2162 14.9807L24.9655 14.9186L25.0164 14.7104C25.0535 14.7226 25.254 14.7686 25.2575 14.7696C25.2974 14.7809 25.3429 14.7912 25.3429 14.7912C25.3429 14.7912 25.3745 14.8026 25.3977 14.8406C25.4054 14.852 25.4104 14.865 25.4122 14.8786C25.414 14.8922 25.4125 14.9061 25.408 14.9191C25.3939 14.9591 25.359 14.9882 25.3425 14.9916V14.9916Z" fill="#009B3A"/>
<path d="M28.492 16.1961C28.4705 16.1866 28.4482 16.1799 28.4257 16.1729C28.3605 16.2959 28.2162 16.3834 28.0877 16.2953C27.8538 16.1354 28.1408 15.7163 28.3745 15.8763C28.431 15.9149 28.4565 15.9686 28.4603 16.0256C28.4957 16.0406 28.5338 16.0476 28.5693 16.0639C28.5843 16.0708 28.599 16.0779 28.6138 16.0846C28.6258 15.9313 28.5563 15.7846 28.423 15.7156C28.2392 15.6203 28.0042 15.7088 27.8983 15.9129C27.7925 16.1173 27.8557 16.3601 28.0397 16.4554C28.2235 16.5508 28.4585 16.4623 28.5643 16.2581C28.5685 16.2499 28.572 16.2418 28.5757 16.2336C28.5477 16.2213 28.52 16.2084 28.492 16.1961Z" fill="#009B3A"/>
<path d="M28.0423 14.6718L27.8572 14.8061L27.928 15.0239L27.7427 14.8893L27.5577 15.0239L27.6283 14.8061L27.4432 14.6718H27.672L27.7427 14.4541L27.8135 14.6718H28.0423ZM17.5005 15.8124L17.7208 15.9726L17.6367 16.2318L17.8572 16.0716L18.0775 16.2318L17.9933 15.9726L18.2138 15.8124H17.9413L17.8572 15.5534L17.773 15.8124H17.5005ZM27.1492 16.9819L27.3017 17.0928L27.2435 17.2721L27.396 17.1613L27.5485 17.2721L27.4902 17.0928L27.6428 16.9819H27.4542L27.396 16.8026L27.3385 16.9819H27.1492ZM19.3308 19.0348L19.4242 19.1001L19.3882 19.2113L19.481 19.1438L19.5737 19.2113L19.5382 19.1021L19.631 19.0348H19.5163L19.481 18.9256L19.4455 19.0348H19.3308ZM18.6295 19.2319L18.5465 19.4909H18.2743L18.4947 19.6511L18.4105 19.9103L18.631 19.7501L18.8513 19.9103L18.7672 19.6511L18.9877 19.4909H18.7152L18.631 19.2319H18.6295ZM17.2623 20.2961L17.446 20.4294L17.3758 20.6454L17.5595 20.5119L17.7432 20.6454L17.673 20.4296L17.8567 20.2961H17.6297L17.5595 20.0801L17.4893 20.2961H17.2623ZM21.3808 17.7546L21.5608 17.8853L21.492 18.0969L21.672 17.9661L21.852 18.0969L21.7832 17.8853L21.9633 17.7546H21.7408L21.672 17.5429L21.6033 17.7546H21.3808ZM20.204 20.3678L20.37 20.4884L20.3067 20.6836L20.4727 20.5629L20.6387 20.6836L20.5752 20.4884L20.7413 20.3678H20.5362L20.4727 20.1728L20.4093 20.3678H20.204ZM19.9572 21.2834L20.1098 21.3943L20.0515 21.5736L20.2042 21.4628L20.3567 21.5736L20.2983 21.3943L20.4508 21.2834H20.2623L20.2042 21.1041L20.1467 21.2834H19.9572ZM21.1388 21.9803L21.3593 22.1404L21.2752 22.3996L21.4955 22.2394L21.716 22.3996L21.6317 22.1404L21.8522 21.9803H21.5797L21.4955 21.7213L21.4113 21.9803H21.1388ZM24.7003 18.8393L24.8855 18.9736L24.8148 19.1914L25 19.0568L25.1852 19.1914L25.1145 18.9736L25.2995 18.8393H25.0697L25 18.6216L24.9293 18.8393H24.7003ZM23.8688 19.6273L24.0213 19.7381L23.9632 19.9174L24.1152 19.8063L24.2682 19.9174L24.2098 19.7381L24.3623 19.6273H24.1738L24.1157 19.4479L24.0573 19.6273H23.8688ZM24.4035 20.2306L24.4962 20.2981L24.4608 20.4071L24.5537 20.3398L24.6463 20.4071L24.6108 20.2979L24.7037 20.2306H24.589L24.5537 20.1216L24.5182 20.2306H24.4035ZM25.7117 19.6039L25.8968 19.7384L25.8262 19.9561L26.0112 19.8214L26.1965 19.9561L26.1257 19.7384L26.3108 19.6039H26.082L26.0112 19.3863L25.9417 19.6039H25.7117ZM24.6433 21.3516L24.8638 21.5118L24.7795 21.7709L25 21.6108L25.2203 21.7709L25.1362 21.5118L25.3567 21.3516H25.0842L25 21.0926L24.917 21.3516H24.6433ZM24.88 24.3074L24.9508 24.3588L24.9238 24.4419L24.9945 24.3906L25.0652 24.4419L25.0382 24.3588L25.1088 24.3074H25.0215L24.9945 24.2244L24.9678 24.3074H24.88ZM26.6795 22.3311L26.8322 22.4419L26.7738 22.6213L26.9265 22.5104L27.079 22.6213L27.0207 22.4419L27.1732 22.3311H26.9847L26.9265 22.1518L26.869 22.3311H26.6795ZM27.3158 23.2916L27.501 23.4261L27.4302 23.6438L27.6153 23.5091L27.8007 23.6438L27.7298 23.4261L27.915 23.2916H27.6862L27.6153 23.0739L27.5447 23.2916H27.3158ZM28.467 22.6408L28.6195 22.5299H28.431L28.3728 22.3506L28.3153 22.5299H28.1258L28.2785 22.6408L28.2202 22.8201L28.3728 22.7093L28.5253 22.8201L28.467 22.6408ZM29.099 22.2394L29.2515 22.3503L29.1933 22.5296L29.3458 22.4188L29.4983 22.5296L29.44 22.3503L29.5925 22.2394H29.404L29.3458 22.0601L29.2875 22.2394H29.099ZM29.0687 23.0669L29.2538 23.2013L29.183 23.4191L29.3682 23.2844L29.5533 23.4191L29.4827 23.2013L29.6678 23.0669H29.439L29.3682 22.8493L29.2975 23.0669H29.0687ZM29.1422 23.9808L29.2947 24.0916L29.2365 24.2709L29.389 24.1601L29.5415 24.2709L29.4833 24.0916L29.6358 23.9808H29.4465L29.389 23.8014L29.3317 23.9808H29.1422ZM30.0132 22.3959L30.1657 22.5068L30.1075 22.6861L30.26 22.5753L30.4125 22.6861L30.3543 22.5068L30.5068 22.3959H30.3183L30.26 22.2168L30.2017 22.3959H30.0132ZM30.6607 21.9428L30.8458 22.0773L30.7752 22.2949L30.9603 22.1603L31.1455 22.2949L31.0747 22.0773L31.2598 21.9428H31.031L30.9602 21.7251L30.8907 21.9428L30.666 21.9416L30.6607 21.9428ZM31.1865 21.2601L31.3717 21.3944L31.301 21.6123L31.4862 21.4776L31.6713 21.6123L31.6005 21.3946L31.7857 21.2601H31.5568L31.4862 21.0424L31.4153 21.2601H31.1865ZM30.7728 20.4489L30.9932 20.6089L30.909 20.8681L31.1295 20.7079L31.3498 20.8681L31.2657 20.6089L31.4862 20.4489H31.2137L31.1295 20.1898L31.0452 20.4489H30.7728ZM32.1078 20.5809L32.2603 20.6918L32.2022 20.8711L32.3547 20.7603L32.5072 20.8711L32.4488 20.6918L32.6015 20.5809H32.413L32.3547 20.4016L32.2973 20.5809H32.1078Z" fill="white"/>
</svg>
