<svg width="50" height="27" viewBox="0 0 50 27" fill="none" xmlns="http://www.w3.org/2000/svg">
<path d="M0 0H50V26.3158H0V0Z" fill="white"/>
<path d="M0 0H50V2.02433H0V0ZM0 4.04867H50V6.073H0V4.04867ZM0 8.09717H50V10.1215H0V8.09717ZM0 12.1458H50V14.1702H0V12.1458ZM0 16.1943H50V18.2187H0V16.1943ZM0 20.243H50V22.2673H0V20.243ZM0 24.2915H50V26.3158H0V24.2915Z" fill="#B22234"/>
<path d="M0 0H20V14.17H0V0Z" fill="#3C3B6E"/>
<path d="M0.939667 1.15033L1.41617 1.4965L1.23417 2.05667L1.7105 1.7105L2.187 2.05667L2.005 1.4965L2.48133 1.15033H1.8925L1.7105 0.590332L1.5285 1.15033H0.939667ZM4.2555 1.15033L4.73183 1.4965L4.54983 2.05667L5.02633 1.7105L5.50283 2.05667L5.32083 1.4965L5.79717 1.15033H5.20833L5.02633 0.590332L4.84433 1.15033H4.2555ZM7.57133 1.15033L8.04767 1.4965L7.86567 2.05667L8.34217 1.7105L8.8185 2.05667L8.6365 1.4965L9.113 1.15033H8.52417L8.34217 0.590332L8.16017 1.15033H7.57133ZM10.8872 1.15033L11.3635 1.4965L11.1815 2.05667L11.658 1.7105L12.1343 2.05667L11.9523 1.4965L12.4288 1.15033H11.8398L11.658 0.590332L11.476 1.15033H10.8872ZM14.2028 1.15033L14.6793 1.4965L14.4973 2.05667L14.9737 1.7105L15.4502 2.05667L15.2682 1.4965L15.7445 1.15033H15.1557L14.9737 0.590332L14.7917 1.15033H14.2028ZM17.5187 1.15033L17.995 1.4965L17.813 2.05667L18.2895 1.7105L18.7658 2.05667L18.5838 1.4965L19.0603 1.15033H18.4715L18.2895 0.590332L18.1075 1.15033H17.5187ZM2.5975 2.5715L3.074 2.91767L2.892 3.47767L3.3685 3.1315L3.84483 3.47767L3.66283 2.91767L4.13933 2.5715H3.55033L3.3685 2.01133L3.1865 2.5715H2.5975ZM5.91333 2.5715L6.38983 2.91767L6.20783 3.47767L6.68417 3.1315L7.16067 3.47767L6.97867 2.91767L7.455 2.5715H6.86617L6.68417 2.01133L6.50217 2.5715H5.91333ZM9.22917 2.5715L9.70567 2.91767L9.52367 3.47767L10 3.1315L10.4765 3.47767L10.2945 2.91767L10.7708 2.5715H10.182L10 2.01133L9.818 2.5715H9.22917ZM12.545 2.5715L13.0213 2.91767L12.8393 3.47767L13.3158 3.1315L13.7922 3.47767L13.6102 2.91767L14.0867 2.5715H13.4978L13.3158 2.01133L13.1338 2.5715H12.545ZM15.8607 2.5715L16.3372 2.91767L16.1552 3.47767L16.6315 3.1315L17.108 3.47767L16.926 2.91767L17.4023 2.5715H16.8135L16.6315 2.01133L16.4497 2.5715H15.8607ZM0.939667 3.9925L1.41617 4.33867L1.23417 4.89883L1.7105 4.55267L2.187 4.89883L2.005 4.33867L2.48133 3.9925H1.8925L1.7105 3.4325L1.5285 3.9925H0.939667ZM4.2555 3.9925L4.73183 4.33867L4.54983 4.89883L5.02633 4.55267L5.50283 4.89883L5.32083 4.33867L5.79717 3.9925H5.20833L5.02633 3.4325L4.84433 3.9925H4.2555ZM7.57133 3.9925L8.04767 4.33867L7.86567 4.89883L8.34217 4.55267L8.8185 4.89883L8.6365 4.33867L9.113 3.9925H8.52417L8.34217 3.4325L8.16017 3.9925H7.57133ZM10.8872 3.9925L11.3635 4.33867L11.1815 4.89883L11.658 4.55267L12.1343 4.89883L11.9523 4.33867L12.4288 3.9925H11.8398L11.658 3.4325L11.476 3.9925H10.8872ZM14.2028 3.9925L14.6793 4.33867L14.4973 4.89883L14.9737 4.55267L15.4502 4.89883L15.2682 4.33867L15.7445 3.9925H15.1557L14.9737 3.4325L14.7917 3.9925H14.2028ZM17.5187 3.9925L17.995 4.33867L17.813 4.89883L18.2895 4.55267L18.7658 4.89883L18.5838 4.33867L19.0603 3.9925H18.4715L18.2895 3.4325L18.1075 3.9925H17.5187ZM2.6385 5.41833L3.11483 5.7645L2.933 6.3245L3.40933 5.97833L3.88583 6.3245L3.70383 5.76433L4.18017 5.41833H3.59133L3.40933 4.85817L3.22733 5.41833H2.6385ZM5.95433 5.41833L6.43067 5.7645L6.24867 6.3245L6.72517 5.97833L7.2015 6.3245L7.0195 5.76433L7.496 5.41833H6.90717L6.72517 4.85817L6.54317 5.41833H5.95433ZM9.27017 5.41833L9.7465 5.7645L9.5645 6.3245L10.041 5.97833L10.5173 6.3245L10.3353 5.76433L10.8118 5.41833H10.2228L10.041 4.85817L9.859 5.41833H9.27017ZM12.5858 5.41833L13.0623 5.7645L12.8803 6.3245L13.3567 5.97833L13.8332 6.3245L13.6512 5.76433L14.1275 5.41833H13.5387L13.3567 4.85817L13.1747 5.41833H12.5858ZM15.9017 5.41833L16.378 5.7645L16.196 6.3245L16.6725 5.97833L17.1488 6.3245L16.9668 5.76433L17.4433 5.41833H16.8545L16.6725 4.85817L16.4905 5.41833H15.9017ZM0.99 6.8275L1.4665 7.1735L1.2845 7.73367L1.76083 7.3875L2.23733 7.73367L2.05533 7.1735L2.53167 6.8275H1.94283L1.76083 6.26733L1.57883 6.8275H0.99ZM4.30583 6.8275L4.78217 7.1735L4.60017 7.73367L5.07667 7.3875L5.553 7.73367L5.37117 7.1735L5.8475 6.8275H5.25867L5.07667 6.26733L4.89467 6.8275H4.30583ZM7.62167 6.8275L8.098 7.1735L7.916 7.73367L8.3925 7.3875L8.86883 7.73367L8.68683 7.1735L9.16333 6.8275H8.5745L8.3925 6.26733L8.2105 6.8275H7.62167ZM10.9373 6.8275L11.4138 7.1735L11.2318 7.73367L11.7082 7.3875L12.1847 7.73367L12.0027 7.1735L12.4792 6.8275H11.8902L11.7082 6.26733L11.5263 6.8275H10.9373ZM14.2532 6.8275L14.7295 7.1735L14.5477 7.73367L15.024 7.3875L15.5005 7.73367L15.3185 7.1735L15.7948 6.8275H15.206L15.024 6.26733L14.842 6.8275H14.2532ZM17.569 6.8275L18.0453 7.1735L17.8633 7.73367L18.3398 7.3875L18.8162 7.73367L18.6342 7.1735L19.1107 6.8275H18.5218L18.3398 6.26733L18.1578 6.8275H17.569ZM1.02117 9.6245L1.4975 9.97067L1.3155 10.5308L1.792 10.1847L2.26833 10.5308L2.08633 9.97067L2.56283 9.6245H1.974L1.792 9.0645L1.61 9.6245H1.02117ZM4.33683 9.6245L4.81333 9.97067L4.63133 10.5308L5.10767 10.1847L5.58417 10.5308L5.40217 9.97067L5.8785 9.6245H5.28967L5.10767 9.0645L4.92567 9.6245H4.33683ZM7.65267 9.6245L8.129 9.97067L7.94717 10.5308L8.4235 10.1847L8.9 10.5308L8.718 9.97067L9.19433 9.6245H8.6055L8.4235 9.0645L8.2415 9.6245H7.65267ZM10.9685 9.6245L11.4448 9.97067L11.2628 10.5308L11.7393 10.1847L12.2157 10.5308L12.0338 9.97067L12.5102 9.6245H11.9213L11.7393 9.0645L11.5573 9.6245H10.9685ZM14.2842 9.6245L14.7607 9.97067L14.5787 10.5308L15.055 10.1847L15.5315 10.5308L15.3495 9.97067L15.826 9.6245H15.237L15.055 9.0645L14.8732 9.6245H14.2842ZM17.6 9.6245L18.0763 9.97067L17.8945 10.5308L18.3708 10.1847L18.8473 10.5308L18.6653 9.97067L19.1417 9.6245H18.5528L18.3708 9.0645L18.1888 9.6245H17.6ZM0.980667 12.4545L1.457 12.8007L1.275 13.3608L1.7515 13.0147L2.22783 13.3608L2.04583 12.8007L2.52233 12.4545H1.93333L1.7515 11.8945L1.5695 12.4545H0.980667ZM4.29633 12.4545L4.77283 12.8007L4.59083 13.3608L5.06717 13.0147L5.54367 13.3608L5.36167 12.8007L5.838 12.4545H5.24917L5.06717 11.8945L4.88517 12.4545H4.29633ZM7.61217 12.4545L8.0885 12.8007L7.90667 13.3608L8.383 13.0147L8.8595 13.3608L8.6775 12.8007L9.15383 12.4545H8.565L8.383 11.8945L8.201 12.4545H7.61217ZM10.928 12.4545L11.4043 12.8007L11.2223 13.3608L11.6988 13.0147L12.1752 13.3608L11.9933 12.8007L12.4697 12.4545H11.8808L11.6988 11.8945L11.5168 12.4545H10.928ZM14.2437 12.4545L14.7202 12.8007L14.5382 13.3608L15.0145 13.0147L15.491 13.3608L15.309 12.8007L15.7855 12.4545H15.1965L15.0145 11.8945L14.8327 12.4545H14.2437ZM17.5595 12.4545L18.0358 12.8007L17.854 13.3608L18.3303 13.0147L18.8068 13.3608L18.6248 12.8007L19.1012 12.4545H18.5123L18.3303 11.8945L18.1483 12.4545H17.5595ZM2.64833 8.212L3.12467 8.55817L2.94283 9.11817L3.41917 8.772L3.89567 9.11817L3.71367 8.55817L4.19 8.212H3.60117L3.41917 7.65183L3.23717 8.212H2.64833ZM5.96417 8.212L6.4405 8.55817L6.2585 9.11817L6.735 8.772L7.21133 9.11817L7.0295 8.55817L7.50583 8.212H6.917L6.735 7.65183L6.553 8.212H5.96417ZM9.28 8.212L9.75633 8.55817L9.57433 9.11817L10.0508 8.772L10.5272 9.11817L10.3452 8.55817L10.8217 8.212H10.2328L10.0508 7.65183L9.86883 8.212H9.28ZM12.5957 8.212L13.0722 8.55817L12.8902 9.11817L13.3665 8.772L13.843 9.11817L13.661 8.55817L14.1373 8.212H13.5485L13.3665 7.65183L13.1845 8.212H12.5957ZM15.9115 8.212L16.3878 8.55817L16.2058 9.11817L16.6823 8.772L17.1587 9.11817L16.9768 8.55817L17.4532 8.212H16.8643L16.6823 7.65183L16.5003 8.212H15.9115ZM2.6385 11.0375L3.115 11.3837L2.933 11.9438L3.40933 11.5977L3.88583 11.9438L3.70383 11.3837L4.18017 11.0375H3.59133L3.40933 10.4775L3.22733 11.0375H2.6385ZM5.95433 11.0375L6.43067 11.3837L6.24867 11.9438L6.72517 11.5977L7.20167 11.9438L7.01967 11.3837L7.496 11.0375H6.90717L6.72517 10.4775L6.54317 11.0375H5.95433ZM9.27017 11.0375L9.7465 11.3837L9.5645 11.9438L10.041 11.5977L10.5173 11.9438L10.3353 11.3837L10.8118 11.0375H10.223L10.041 10.4775L9.859 11.0375H9.27017ZM12.5858 11.0375L13.0623 11.3837L12.8803 11.9438L13.3567 11.5977L13.8332 11.9438L13.6512 11.3837L14.1275 11.0375H13.5387L13.3567 10.4775L13.1747 11.0375H12.5858ZM15.9017 11.0375L16.378 11.3837L16.196 11.9438L16.6725 11.5977L17.1488 11.9438L16.967 11.3837L17.4433 11.0375H16.8545L16.6725 10.4775L16.4905 11.0375H15.9017Z" fill="white"/>
</svg>
